<?xml version="1.0" standalone="no"?><svg xmlns="http://www.w3.org/2000/svg" viewBox="0 0 1440 320"><path fill="#ff3908" fill-opacity="1" d="M0,288L30,272C60,256,120,224,180,186.7C240,149,300,107,360,106.7C420,107,480,149,540,160C600,171,660,149,720,154.7C780,160,840,192,900,181.3C960,171,1020,117,1080,85.3C1140,53,1200,43,1260,32C1320,21,1380,11,1410,5.3L1440,0L1440,320L1410,320C1380,320,1320,320,1260,320C1200,320,1140,320,1080,320C1020,320,960,320,900,320C840,320,780,320,720,320C660,320,600,320,540,320C480,320,420,320,360,320C300,320,240,320,180,320C120,320,60,320,30,320L0,320Z"></path></svg>